<?xml version="1.0" encoding="UTF-8"?>
<svg id="Livello_1_Immagine" data-name="Livello 1 Immagine" xmlns="http://www.w3.org/2000/svg" xmlns:xlink="http://www.w3.org/1999/xlink" viewBox="0 0 703.44 236.16">
  <defs>
    <style>
      .cls-1 {
        fill: #fff;
      }

      .cls-1, .cls-2 {
        stroke-width: 0px;
      }

      .cls-2 {
        fill: url(#Sfumatura_senza_nome_46);
      }
    </style>
    <linearGradient id="Sfumatura_senza_nome_46" data-name="Sfumatura senza nome 46" x1="41.92" y1="188.94" x2="190.58" y2="40.28" gradientUnits="userSpaceOnUse">
      <stop offset="0" stop-color="#d4890b"/>
      <stop offset=".5" stop-color="#ffd500"/>
      <stop offset=".65" stop-color="#f3c102"/>
      <stop offset=".97" stop-color="#d68e0a"/>
      <stop offset="1" stop-color="#d4890b"/>
    </linearGradient>
  </defs>
  <path class="cls-2" d="M131.48,8.88c2.72.39,5.48.63,8.17,1.21,6.28,1.37,12.59,2.68,18.77,4.44,4.71,1.34,9.23,3.33,13.84,5.03.11.04.23.05.34.08l.14-.34-14.98-6.24s.02-.08.03-.11c2.01.71,4.07,1.3,6.02,2.14,4.87,2.11,9.83,4.09,14.51,6.56,7.4,3.91,14.64,8.11,21.87,12.33,2.75,1.61,5.27,3.6,7.97,5.48-1.28.46-1.25.41-2.17-.24-7.63-5.37-15.49-10.32-24.22-13.75-.18-.07-.38-.11-.57-.15-.02,0-.06.04-.18.13,3.84,2.2,7.65,4.38,11.45,6.56-.05.1-.1.21-.15.31-12.68-6.91-25.86-12.53-39.8-16.22-.07.18-.14.36-.21.54,3.27,1.18,6.53,2.36,9.8,3.54-6.73-1.53-13.35-3.55-20.23-4.3-.04.18-.08.37-.12.55,2.53.57,5.05,1.19,7.6,1.69,12.43,2.43,24.27,6.58,35.66,12.08,8.08,3.9,15.73,8.53,23.02,13.78.72.52,1.36,1.17,2.03,1.76l-.25.38c-.4-.22-.83-.41-1.2-.67-9.88-7.13-20.3-13.34-31.53-18.13-9.19-3.92-18.77-6.55-28.5-8.71-.22-.05-.46-.03-.72.12,8.31,2.5,16.74,4.62,24.6,8.4-2.28-.8-4.58-1.56-6.85-2.39-9.38-3.46-19.01-5.85-28.98-6.73-3.1-.27-6.19-.48-9.32.09-1.78.32-3.66.06-5.49.06-.02.13-.03.25-.05.38.39.07.77.18,1.16.21,4.86.45,9.73.76,14.56,1.37,4.75.6,9.59,1.04,14.17,2.34,11.12,3.15,21.9,7.27,31.88,13.23.23.14.45.31.63.57-6.22-2.26-11.95-5.75-18.39-7.41-.06.12-.11.24-.17.36.37.18.73.37,1.1.55,7.53,3.6,15.16,7.01,22.56,10.87,7.67,4,14.72,9.01,21.4,14.53.44.37.86.76,1.2,1.23-4.73-3.44-9.44-6.91-14.19-10.31s-10.11-5.65-15.4-8.04c9.57,5.12,18.88,10.62,27.08,17.8-.06.1-.13.19-.19.29-.39-.3-.76-.63-1.17-.9-5.6-3.85-11.2-7.69-16.8-11.53-.26-.18-.55-.33-.85-.44-.05-.02-.2.22-.41.48-.84-.54-1.89-1.08-2.79-1.83-2.18-1.82-4.69-3.05-7.28-4.1-5.11-2.06-10.23-4.11-15.42-5.93-1.96-.69-4.17-.65-6.22-1.11-2.69-.6-5.34-1.37-8-2.05-.22-.06-.46-.05-.76.09.21.13.42.26.63.39-.02.06-.04.12-.05.18-1.55-.3-3.1-.62-4.65-.9-.86-.16-1.79-.51-2.6-.33-3.32.7-6.56-.7-9.96,0-2.84.58-5.9.07-8.85.19-2.67.11-5.33.4-7.99.67-.4.04-.75.43-1.13.66-.23.13-.45.32-.7.36-2.51.39-5.02.81-7.54,1.11-8.59,1.02-16.84,3.36-24.82,6.62-3.06,1.25-6.01,2.78-9.01,4.2-.31.15-.59.38-.8.76.73-.3,1.46-.61,2.19-.91l.17.26c-.24.2-.45.47-.72.6-11.83,5.91-21.13,14.83-29.67,24.7-2.05,2.37-3.53,4.97-4.69,7.87-1.27,3.18-3.03,6.17-4.3,9.35-3.01,7.51-5.45,15.21-6.67,23.22-.87,5.71-.83,11.48-.24,17.23.7,6.85,1.36,13.73,3.41,20.31,1.18,3.78,3.1,7.35,4.78,10.97,2.58,5.55,5.18,11.15,9.33,15.73,2.83,3.13,6.05,5.91,9.15,8.79.57.53,1.38.79,2.08,1.17.09-.12.17-.24.26-.36-1.2-1.28-2.41-2.57-3.61-3.85.06-.07.13-.15.19-.22.47.38.95.75,1.4,1.14,8.3,7.22,17.48,13.08,27.6,17.36,12.31,5.2,25.08,8.35,38.56,7.9,10.19-.34,20.01-2.48,29.23-6.82,9.83-4.63,18.61-10.84,25.91-19,1.4-1.56,3.16-2.82,4.46-4.46,1.63-2.06,3.1-4.27,4.4-6.56,3.69-6.47,6.36-13.35,7.68-20.7,1.18-6.58.73-13.15-.64-19.67-2.64-12.5-8.83-22.96-18.24-31.55-1.26-1.15-2.63-2.17-4.11-3.08.09.2.18.4.32.69-.33-.1-.59-.19-.85-.27,1.6,1.82,3.73,3.14,4.3,5.83-.49-.38-1.03-.72-1.46-1.15-5.4-5.48-11.71-9.63-18.69-12.81-11.12-5.07-22.75-6.98-34.85-5.16-15.48,2.34-28.03,9.69-37.14,22.56-2.23,3.15-3.92,6.59-4.99,10.32-.08.29-.11.6-.01,1.02,5.24-15.4,16.35-24.35,31.39-29.03-2.71,1.32-5.51,2.51-8.13,3.99-9.12,5.16-16.23,12.28-20.58,21.91-2.19,4.85-3.37,10.01-2.72,15.3.92,7.49,3.13,14.57,7.69,20.79,5.13,7,11.39,12.67,19.55,15.7,15.39,5.72,31.98,1.31,41.77-9.54,3.25-3.61,5.81-7.65,6.74-12.51,1.03-5.38-.17-10.38-2.58-15.19-3.71-7.41-10.2-11.09-17.8-13.18-1.76-.48-3.7-.33-5.55-.47-.02.17-.03.34-.05.51,1,.09,2.01.19,3.01.28-3.36.04-6.61.56-9.66,2.02-.43.21-.84.46-1.28.66-.69.31-.96.74-.44,1.51.96-.43,1.94-.88,2.93-1.33.02.05.05.09.07.14-.89.56-1.77,1.12-2.66,1.67.03.06.05.12.08.18,1.27-.33,2.53-.74,3.81-.98,5.28-1,10.19.05,14.64,3.02,3.31,2.21,6.76,4.27,9.29,7.83.11-.63.17-.98.24-1.38,2.21,1.97,1.93,4.52,1.8,7.06,1.19-2.05,1.08-4.28,1.18-6.47l.33-.05c.18.78.56,1.56.51,2.33-.11,1.65-.14,3.41-.73,4.92-.96,2.46-2.38,4.74-1.46,7.86-.69-.42-1.04-.63-1.43-.87-.11.1-.25.18-.32.3-2.41,4.49-6.07,7.68-10.46,10.11-2.72,1.51-5.46,3.01-8.21,4.46-.55.29-1.2.48-1.82.55-8.86,1.1-17.15-.21-24.38-5.85-4.84-3.77-7.72-8.87-9.64-14.59-.28-.83-.58-1.66-.89-2.48-.03-.09-.18-.14-.46-.36-.07.62-.12,1.11-.18,1.6-.11,0-.22.03-.32.04-.36-1.89-.69-3.79-1.09-5.68-.18-.85-.57-1.65-.72-2.5-.18-1.01-.37-2.06-.25-3.05.24-1.9.97-3.76,1.03-5.65.1-3.24,2.33-5.44,3.69-8.47-.69.59-1.12.96-1.78,1.53v-1.76c-3.58,5.21-4.73,11.09-5.21,17.23-.08-.19-.22-.38-.22-.57.26-8.66,2.51-16.54,9.26-22.49,4.34-3.83,9.09-6.97,14.69-8.83,4.93-1.64,9.76-3.56,14.9-4.45,5.53-.95,10.95-.24,16.22,1.41,6.68,2.09,13.26,4.47,19.05,8.56,8.9,6.28,14.11,14.99,16.54,25.44.69,2.98.77,6.1,1.14,9.15.09.75.25,1.5.54,2.24.91-1.55,1.04-3.2.97-4.87-.06-1.59-.21-3.17-.32-4.76l.59-.11c.17.43.45.85.48,1.29.27,3.62.49,7.24.72,10.87.03.54,0,1.09.28,1.67.2-1.25.41-2.5.61-3.74.13.02.27.04.4.06-.48,3.18-.95,6.35-1.43,9.53-.13.88-.22,1.76-.41,2.62-.07.32-.46.57-.55.89-.44,1.48-.55,3.13-1.28,4.45-6.14,11.16-13.89,20.79-25.82,26.28-2.49,1.15-4.97,2.32-7.52,3.51,4.1.57,18.59-8.17,24.38-14.68,6.55-7.36,10.74-15.92,12.84-25.55l.42.09c-.07.61-.04,1.24-.21,1.81-.85,2.87-1.63,5.77-2.67,8.57-2.44,6.52-6.54,11.97-11.31,16.93-6.13,6.37-13.35,11.08-21.91,13.46-3.01.84-6.16,1.18-9.24,1.75-1.92.36-3.84.74-5.76,1.12-.25.05-.5.15-.74.23,0,.11.02.22.03.33,1.42-.07,2.83-.13,4.25-.2.02.12.04.23.06.35-1.36.25-2.7.58-4.07.75-5.78.71-11.56.76-17.35.11-3.97-.45-7.95-.77-11.93-1.15-.18-.02-.37.03-.61.32,2.06.57,4.12,1.14,6.18,1.7-.03.09-.06.19-.09.28-5.83-.89-11.29-3.02-16.82-5.06.99.47,1.97.95,2.97,1.4,1.05.48,2.11.95,3.19,1.39,1.06.43,2.13.83,3.19,1.24-.03.11-.07.22-.1.33-.8-.23-1.61-.44-2.4-.7-12.15-3.93-22.35-10.89-31.02-20.17-1.69-1.81-3.4-3.61-5.02-5.49-.5-.58-.95-1.35-1.06-2.09-.34-2.18-1.74-3.67-2.9-5.39-1.4-2.07-2.51-4.35-3.52-6.65-1.7-3.87-2.4-8.03-2.98-12.19-.18-1.27-.35-2.53-.69-3.82v2.3c-.13,0-.27.02-.4.03-.27-1.86-.61-3.72-.8-5.59-1.38-13.43,2.02-25.77,8.14-37.63,4.96-9.6,11.89-17.56,19.33-25.21,2.88-2.96,6.54-4.63,10.08-6.55,4-2.18,7.95-4.41,12.35-5.77,10.64-3.29,21.54-4.63,32.62-4.9.41,0,.83-.05,1.24-.08v-.46h-9.46c5.46-2.94,33.55,1.71,39.06,6.32-9.87-2.42-19.87-2.66-29.94-1.91,5.59.35,11.17.76,16.53,2.7-2.16-.2-4.32-.39-6.48-.59l-.07.47c1.41.29,2.82.57,4.22.89,1.67.38,3.39.66,5,1.24,13.83,4.98,27.4,10.46,38.58,20.46,11.47,10.25,19.96,22.41,23.97,37.42,2.32,8.67,2.85,17.47,1.76,26.4-1.22,10.04-4.93,19.2-9.39,28.16-11.95,24.04-31.06,39.82-56.05,48.79-13.2,4.74-26.89,6.63-40.91,5.92-10.94-.55-21.52-2.86-31.88-6.34-11.91-4-22.99-9.62-33.05-17.16-2.74-2.05-5.38-4.33-7.69-6.85-6.02-6.57-12.1-13.12-16.47-21-3.64-6.57-6.19-13.59-8.65-20.65-5.01-14.36-6.21-29.17-5.35-44.24.47-8.09,1.4-16.17,4.22-23.77,3.52-9.47,7.02-19.05,13.1-27.26,15.58-21.07,35.47-36.19,60.91-43.53,8.83-2.55,17.8-4.2,26.95-4.97.39-.03.78-.14,1.17-.21h19.43-.04ZM117.77,120.74c.73-.53,1.39-1.27,2.2-1.55,1.49-.51,3.07-.87,4.63-1.08,1.25-.17,2.56-.19,3.81,0,4.94.75,8.99,2.97,11.58,7.43.25.43.67.75,1.01,1.13.11-.08.23-.16.34-.23.19-1.65-.89-2.89-1.65-4.37.27.11.37.17.48.2.07.02.15,0,.32,0-1.84-2.2-4.05-3.57-6.57-4.64-3.55-1.5-7.15-2.32-10.98-1.67-5.24.89-9.27,3.39-11.08,8.68-.23.67-.25,1.4-.37,2.11.12.04.24.07.37.11.37-.62.74-1.24,1.1-1.86l.43.1c-.72,2.13-.89,4.24,0,6.31.88,2.07,2.11,3.8,4.49,4.6-5.85-5.86-5.84-11.99-.07-15.31-.51.56-1.03,1.11-1.51,1.69-2.68,3.21-3.26,7.31-.81,10.36,1.39,1.73,3.55,3.01,5.85,3.68.49.14,1.08.33,1.52.19,2.54-.83,5.16-1.56,6.75-4,.22-.34.52-.63.78-.94l.36.28c-1.24,1.57-1.86,3.83-3.77,4.6-1.94.79-4.19.79-6.3,1.14.5.33,1.04.55,1.61.63,4.29.56,7.48-1.33,10.07-4.56.52-.65,1.15-1.21,1.73-1.81.11.06.22.11.34.17,0,.42.12.89-.02,1.25-.51,1.33-1.1,2.63-1.67,3.93-.29.66-.63,1.3-.95,1.95.09.07.18.14.26.2.81-.65,1.63-1.31,2.44-1.96-2.44,3.76-6.04,5.5-10.43,5.97.56.22,1.06.26,1.55.21,3.6-.38,6.86-1.67,9.54-4.09,3.46-3.12,4.47-7.09,3.28-11.56-.19-.73-1.04-1.26-1.33-1.99-1.99-4.92-6.01-6.71-10.88-7.03-2.65-.17-5.11.76-7.39,2.11-.14.08-.32.1-.65.2.25-.39.39-.61.59-.93-.41.15-.7.25-.99.36h0ZM138.73,16.36c0-.09.02-.19.03-.28-1.39-.18-2.79-.36-4.18-.54,0,.12-.03.24-.04.36,1.4.15,2.79.31,4.19.46h0Z"/>
  <path class="cls-1" d="M475.56,76.56c-.04-.45-.09-.76-.09-1.07,0-4.2.02-8.4-.02-12.6,0-.87.21-1.28,1.14-1.16.35.05.72,0,1.08,0h218.32c1.13,0,1.69.56,1.69,1.67v55.92c0,1.09-.54,1.63-1.63,1.63h-203.93c-1.23,0-1.85.63-1.85,1.9v11.16c0,1.23.63,1.84,1.9,1.84h203.81c1.13,0,1.7.56,1.7,1.68,0,18.68-.01,37.36.03,56.04,0,1.21-.29,1.53-1.52,1.53-73.05-.03-146.11-.03-219.16-.03h-1.42v-14.81h205.44c2.03,0,1.84.22,1.84-1.89v-26.04c0-1.17-.58-1.76-1.75-1.76h-203.69c-2.31,0-1.97.2-1.97-1.98v-40.68c0-1.11.56-1.67,1.69-1.67h203.69c2.24,0,2.03.24,2.03-2.09v-25.92c0-1.12-.56-1.68-1.68-1.69h-205.63l-.02.02Z"/>
  <path class="cls-1" d="M461.65,195.08h-222.02V61.8c.44-.02.86-.06,1.28-.06,73.13,0,146.27,0,219.4-.03,1.19,0,1.46.36,1.44,1.49-.07,3.96-.03,7.92-.03,11.88v1.47h-205.44c-2.26,0-1.97-.25-1.97,1.98v100.08c0,1.13.56,1.69,1.67,1.69h189.29c1.11,0,1.66-.57,1.66-1.71v-40.8c0-1.31-.64-1.97-1.91-1.97h-99.93c-1.25,0-1.87-.63-1.87-1.88,0-3.84.03-7.68-.02-11.52-.01-1,.2-1.4,1.31-1.4,38.67.03,77.33.03,116,0,.94,0,1.23.27,1.22,1.22-.02,23.92-.02,47.84-.02,71.76,0,.31-.04.63-.08,1.06l.02.02Z"/>
  <path class="cls-1" d="M239.75,221.26v-19.02c3.77-.45,7.55-.96,11.12.9,2.68,1.41,3.87,3.88,4.08,6.78.11,1.45,0,2.98-.29,4.4-.79,3.67-3.08,5.94-6.78,6.77-2.69.6-5.38.5-8.13.17h0ZM242.11,219.33c3.9.86,7.56-.37,9.19-3.02,1.73-2.81,1.6-7.66-.26-10.02-1.76-2.23-5.8-3.18-8.93-2.08v15.13h0Z"/>
  <path class="cls-1" d="M539.95,220.48c-2.87,1.01-5.8,1.4-8.8.68-4.44-1.07-7.1-5.23-6.59-10.2.63-6.2,5.42-9.88,11.77-9,1.01.14,2.01.41,3.13.65-.2.76-.36,1.36-.5,1.93-1.22-.21-2.34-.51-3.47-.58-5.69-.37-9.21,3.61-8.3,9.26.85,5.34,5.02,6.96,9.7,6.01.3-.06.74-.45.75-.7.07-1.74.03-3.49.03-5.34h-3.76v-1.89h6.05v9.2-.02Z"/>
  <path class="cls-1" d="M316.43,224.14c5.61,2.23,8.69.35,8.14-4.66-.9.51-1.78,1.23-2.79,1.55-2.35.76-4.8-.27-6.02-2.52-1.54-2.82-1.41-5.69.22-8.45,1.72-2.91,6.22-3.97,8.81-.57.11-.67.2-1.22.29-1.83h1.86c.03.2.11.42.11.64-.01,3.6-.03,7.2-.05,10.8,0,.44,0,.88-.02,1.32-.27,5.54-5.49,8.46-10.43,5.84-1.23-.65-.09-1.33-.11-2.14v.02ZM324.69,214.31h-.08c0-.48.02-.96,0-1.43-.07-1.73-1.17-3.09-2.77-3.46-1.52-.36-3.13.35-3.91,1.85-1.04,1.99-1.09,4.06-.11,6.09.7,1.45,2.07,2.18,3.61,2.02,1.42-.15,2.63-1.17,3-2.69.19-.76.18-1.57.26-2.36v-.02Z"/>
  <path class="cls-1" d="M687.36,219.46v7.26h-2.32v-19.02h1.97c.05.65.1,1.33.13,1.8,1.09-.64,2.13-1.51,3.32-1.87,3.12-.95,6.01.9,6.9,4.23.49,1.82.42,3.64-.16,5.43-1.48,4.61-7.02,5.55-9.84,2.18h0ZM687.25,214.6s.07,0,.11,0c0,.4-.01.8,0,1.2.08,1.91,1.3,3.34,3.13,3.71,1.71.34,3.42-.56,4.16-2.28.79-1.84.83-3.72.01-5.57-.67-1.53-2.07-2.42-3.57-2.35-1.53.07-3,1.15-3.46,2.7-.25.82-.27,1.72-.39,2.58h.01Z"/>
  <path class="cls-1" d="M615.48,214.02c.04,5.23-3.81,8.43-8.4,7.25-.42-.11-.84-.27-1.23-.46-3.21-1.61-4.45-6.2-2.69-9.87,1.49-3.1,5.36-4.49,8.6-3,2.68,1.23,3.65,3.53,3.71,6.08h.01ZM604.6,214.31c.35,1.17.54,2.25.98,3.2.61,1.31,1.7,2.09,3.22,2.13,1.57.04,2.7-.72,3.4-2.04,1.17-2.21,1.15-4.48-.15-6.62-1.42-2.34-4.76-2.4-6.19-.07-.62,1.01-.85,2.27-1.26,3.4h0Z"/>
  <path class="cls-1" d="M423.01,208.58c1.81-1.07,3.63-1.42,5.54-1.13,2.51.38,3.89,2.07,3.99,4.9.07,1.96.02,3.92.02,5.87v2.95h-1.97c-.08-.49-.16-.95-.26-1.55-.37.3-.69.57-1.02.82-2.61,2-6.29,1.11-7.12-1.73-.54-1.84.17-3.94,1.98-4.8,1.37-.66,2.94-.89,4.44-1.26.45-.11.94-.06,1.39-.08.4-3.21-2.02-4.14-6.45-2.51-.17-.47-.34-.93-.55-1.48h0ZM430.19,214.42c-1.74-.21-3.52.09-4.5.74-.93.6-1.33,1.47-1.19,2.55.12.95.64,1.63,1.6,1.87,2.02.51,4.01-.98,4.09-3.07.03-.67,0-1.35,0-2.1h0Z"/>
  <path class="cls-1" d="M652.83,207.64h2.37v13.56h-1.93c-.08-.64-.16-1.26-.25-1.97-.54.49-.96.97-1.47,1.33-2.97,2.13-6.72.69-7.35-2.9-.27-1.56-.21-3.18-.24-4.77-.04-1.71,0-3.42,0-5.2h2.41v1.35c.04,2.52-.02,5.04.18,7.54.16,2.04,1.27,2.95,2.98,2.88,1.77-.07,3.24-1.5,3.29-3.34.06-2.36.02-4.72.02-7.07v-1.41h-.01Z"/>
  <path class="cls-1" d="M391.59,209.49c0,2.83-.07,5.53.03,8.23.05,1.31.78,1.79,2.09,1.74.32,0,.63-.05,1.01-.07.05.3.12.56.14.83.02.28,0,.56,0,.82-3.01,1.42-5.57-.08-5.68-3.37-.09-2.67-.02-5.34-.02-8.11-.71-.04-1.32-.07-2.03-.11v-1.79c.59-.03,1.24-.07,1.99-.11v-3.2c.78-.22,1.49-.42,2.35-.66v3.85h3.5v1.95h-3.39,0Z"/>
  <path class="cls-1" d="M464.41,221.21h-2.26v-20h2.26v20Z"/>
  <path class="cls-1" d="M571.47,221.24h-2.32v-13.56h1.88c.06.73.12,1.47.2,2.51,1.05-1.82,2.27-3.01,4.41-2.75v2.2c-3.09.38-4.14,1.57-4.16,4.7-.01,2.27,0,4.54,0,6.91h-.01Z"/>
  <path class="cls-1" d="M286.13,221.21h-2.27v-13.5h2.27v13.5Z"/>
  <path class="cls-1" d="M358.85,207.69v13.51h-2.26v-13.51h2.26Z"/>
  <path class="cls-1" d="M284.96,205.14c-.82.02-1.57-.66-1.53-1.49.04-.91.55-1.51,1.49-1.53s1.46.55,1.52,1.48c.05.84-.62,1.52-1.47,1.54h0Z"/>
  <path class="cls-1" d="M357.62,202.1c.93.08,1.48.57,1.51,1.51.03.97-.56,1.45-1.47,1.53-.82.07-1.57-.66-1.53-1.48.04-.92.56-1.45,1.5-1.56h-.01Z"/>
</svg>